#!OML:ASF E:\Mandelcareful walks\Project 1\Capture day 1\Session 1\Subject1.ASF
:FULLY-SPECIFIED
:DEGREES
489
root -5.55975 14.1569 -2.28717 -339.552 11.3659 1.65974
lowerback 23.2866 -7.26735 -6.29995
upperback 8.94485 -10.5431 -0.894734
thorax -1.98567 -5.26204 5.00104
lowerneck -13.8191 -8.8296 -1.42869
upperneck 15.4937 -15.6089 18.8569
head 8.91047 -5.90051 4.59137
rclavicle -2.22639e-014 3.02153e-014
rhumerus 19.4292 -41.2171 -18.2292
rradius 137.2
rwrist -48.6887
rhand -18.5775 -12.9349
rfingers 7.12502
rthumb 7.71297 -42.7742
lclavicle -2.22639e-014 3.02153e-014
lhumerus -59.2027 -43.7764 95.2317
lradius 71.5421
lwrist -3.98182
lhand -31.7615 -19.8109
lfingers 7.12502
lthumb -5.01844 10.1096
rfemur -74.0462 2.74969 4.23929
rtibia 60.1004
rfoot -2.584 26.2104
rtoes 8.39603
lfemur -40.6518 45.0116 -22.6102
ltibia 74.0182
lfoot -41.7789 23.8693
ltoes -16.5324
490
root -5.57165 14.1487 -2.25016 -339.549 10.8433 1.34352
lowerback 23.211 -7.17794 -6.35617
upperback 8.94968 -10.4455 -0.997375
thorax -1.96602 -5.21567 4.89282
lowerneck -13.747 -8.82927 -1.68089
upperneck 15.4184 -15.6137 19.1743
head 8.92453 -5.90296 4.74105
rclavicle -8.90555e-014 4.13472e-014
rhumerus 19.1537 -40.7038 -17.7371
rradius 137.783
rwrist -48.1197
rhand -18.1223 -13.1358
rfingers 7.12502
rthumb 8.15227 -42.9586
lclavicle -8.90555e-014 4.13472e-014
lhumerus -59.1797 -43.9904 94.9723
lradius 71.4753
lwrist -3.98128
lhand -31.9799 -19.7024
lfingers 7.12502
lthumb -5.22936 10.213
rfemur -74.3591 3.1951 4.67506
rtibia 60.3595
rfoot -2.6412 26.4385
rtoes 8.3186
lfemur -40.4389 45.4509 -22.1909
ltibia 74.0157
lfoot -41.8613 23.9022
ltoes -16.3671
491
root -5.58641 14.141 -2.21651 -339.494 10.3195 1.15208
lowerback 23.1003 -7.06305 -6.44105
upperback 9.00184 -10.32 -1.20623
thorax -1.89609 -5.1562 4.67355
lowerneck -13.8343 -8.84455 -1.5211
upperneck 15.3333 -15.6846 19.2798
head 8.92047 -5.92213 4.73573
rclavicle 1.03368e-013 -1.74931e-014
rhumerus 18.6197 -40.1851 -17.0576
rradius 138.278
rwrist -47.4288
rhand -17.2865 -12.8113
rfingers 7.12502
rthumb 8.95888 -42.601
lclavicle 1.03368e-013 -1.74931e-014
lhumerus -58.6439 -44.2779 94.553
lradius 70.6913
lwrist -4.01454
lhand -32.1131 -19.7501
lfingers 7.12502
lthumb -5.35798 10.1621
rfemur -74.6922 3.66181 4.90941
rtibia 60.602
rfoot -2.64464 26.6099
rtoes 9.06409
lfemur -40.3162 45.9139 -21.9862
ltibia 74.0288
lfoot -41.9337 23.9956
ltoes -16.2581
492
root -5.60702 14.1258 -2.18276 -339.425 9.61024 0.975044
lowerback 22.9576 -6.90651 -6.85549
upperback 9.02466 -10.2039 -1.28792
thorax -1.75339 -5.11623 4.76106
lowerneck -14.0713 -8.77874 -1.56481
upperneck 15.4422 -15.6031 19.2017
head 8.98766 -5.87088 4.72104
rclavicle -4.29375e-014 -2.54444e-014
rhumerus 18.5117 -39.627 -16.5029
rradius 138.629
rwrist -47.1344
rhand -16.6632 -12.8705
rfingers 7.12502
rthumb 9.56028 -42.6336
lclavicle -4.29375e-014 -2.54444e-014
lhumerus -58.8055 -43.9188 94.2734
lradius 71.149
lwrist -4.19816
lhand -32.1101 -19.2551
lfingers 7.12502
lthumb -5.35506 10.6573
rfemur -75.1277 4.25277 5.09025
rtibia 60.907
rfoot -2.45506 26.7895
rtoes 8.49893
lfemur -40.2036 46.8196 -21.8002
ltibia 74.1035
lfoot -41.7679 23.9188
ltoes -15.9606
493
root -5.60567 14.1137 -2.16008 -339.469 9.4354 0.872889
lowerback 23.0407 -6.87171 -6.71563
upperback 9.04135 -10.1415 -1.41837
thorax -1.8359 -5.07509 4.54918
lowerneck -14.066 -8.92199 -1.48137
upperneck 15.4521 -15.7854 19.032
head 8.98684 -5.96622 4.62142
rclavicle 4.77083e-015 -3.81667e-014
rhumerus 17.7343 -39.3004 -15.5727
rradius 138.827
rwrist -47.2969
rhand -16.9788 -13.2848
rfingers 7.12502
rthumb 9.25584 -43.0617
lclavicle 4.77083e-015 -3.81667e-014
lhumerus -58.5137 -44.0512 94.1556
lradius 70.4826
lwrist -4.33702
lhand -32.4903 -19.3281
lfingers 7.12502
lthumb -5.72215 10.5747
rfemur -75.2101 4.23995 5.36198
rtibia 61.1584
rfoot -2.32398 26.9872
rtoes 8.27877
lfemur -40.057 47.1033 -21.5834
ltibia 74.2041
lfoot -41.6738 23.9063
ltoes -15.6745
494
root -5.61474 14.1017 -2.13734 -339.469 9.01127 0.743072
lowerback 23.0777 -6.73071 -6.96108
upperback 9.0443 -10.0189 -1.4692
thorax -1.83012 -5.02032 4.60615
lowerneck -14.2728 -8.98099 -1.26706
upperneck 15.691 -15.9016 18.7126
head 9.07046 -6.00489 4.45536
rclavicle 5.56597e-014 -1.43125e-014
rhumerus 17.6381 -39.5866 -15.4216
rradius 138.716
rwrist -49.0486
rhand -16.9426 -13.0968
rfingers 7.12502
rthumb 9.29077 -42.872
lclavicle 5.56597e-014 -1.43125e-014
lhumerus -58.6849 -44.2062 94.0496
lradius 70.5199
lwrist -4.30429
lhand -32.5818 -19.758
lfingers 7.12502
lthumb -5.81047 10.1423
rfemur -75.4408 4.5418 5.58291
rtibia 61.3725
rfoot -2.25876 27.0768
rtoes 15.8398
lfemur -39.9441 47.7202 -21.3759
ltibia 74.3016
lfoot -41.5532 23.7808
ltoes -15.6731
495
root -5.62411 14.0902 -2.11694 -339.353 8.51462 0.705438
lowerback 22.9303 -6.62858 -7.28669
upperback 9.08059 -9.95018 -1.57112
thorax -1.68583 -5.00064 4.634
lowerneck -14.5541 -8.98913 -1.21419
upperneck 15.967 -15.9916 18.677
head 9.22176 -6.00948 4.41358
rclavicle 4.13472e-014 4.77083e-015
rhumerus 17.8728 -39.9473 -15.724
rradius 138.374
rwrist -49.8704
rhand -17.1719 -13.0956
rfingers 7.12502
rthumb 9.06943 -42.8806
lclavicle 4.13472e-014 4.77083e-015
lhumerus -59.2984 -44.4904 93.8719
lradius 71.3663
lwrist -4.01773
lhand -32.3647 -20.289
lfingers 7.12502
lthumb -5.60083 9.61697
rfemur -75.7993 4.85028 5.66626
rtibia 61.5475
rfoot -2.21645 27.2297
rtoes 7.50699
lfemur -39.9739 48.3347 -21.4121
ltibia 74.3677
lfoot -41.52 23.6622
ltoes -15.6903
496
root -5.61446 14.085 -2.10327 -339.288 8.36162 0.861877
lowerback 22.9152 -6.71211 -7.37271
upperback 9.12406 -10.076 -1.71144
thorax -1.62625 -5.06409 4.54993
lowerneck -14.6803 -8.98766 -1.39369
upperneck 16.1372 -16.0391 18.8638
head 9.34509 -6.00615 4.4965
rclavicle 4.77083e-014 -3.18055e-015
rhumerus 18.1064 -40.2818 -16.0025
rradius 137.884
rwrist -49.8812
rhand -17.3595 -13.2022
rfingers 7.12502
rthumb 8.88844 -42.995
lclavicle 4.77083e-014 -3.18055e-015
lhumerus -59.5955 -44.6615 93.79
lradius 71.6217
lwrist -3.6674
lhand -32.4449 -20.4522
lfingers 7.12502
lthumb -5.67833 9.45172
rfemur -75.9128 4.69103 5.62145
rtibia 61.6759
rfoot -2.20604 27.5479
rtoes 6.20694
lfemur -39.9491 48.3067 -21.6739
ltibia 74.3738
lfoot -41.6838 23.688
ltoes -15.5394
497
root -5.61303 14.0744 -2.09526 -339.125 8.05233 1.16013
lowerback 22.9124 -6.6466 -7.79466
upperback 9.08057 -10.0876 -1.84883
thorax -1.61911 -5.07461 4.63364
lowerneck -14.7342 -8.98719 -1.35453
upperneck 16.2233 -16.0695 18.8622
head 9.38586 -6.00897 4.48409
rclavicle 9.54166e-014 -4.45278e-014
rhumerus 18.0287 -40.5077 -16.0077
rradius 137.471
rwrist -50.1374
rhand -17.7879 -13.2352
rfingers 7.12502
rthumb 8.47502 -43.0451
lclavicle 9.54166e-014 -4.45278e-014
lhumerus -59.4549 -44.7134 93.7906
lradius 71.0175
lwrist -3.52353
lhand -32.7993 -20.7524
lfingers 7.12502
lthumb -6.02047 9.14202
rfemur -76.2322 4.61413 5.36728
rtibia 61.8539
rfoot -2.02498 27.7713
rtoes 8.40499
lfemur -40.0831 48.4231 -22.2122
ltibia 74.3878
lfoot -41.7137 23.7527
ltoes -15.6944
498
root -5.61728 14.0635 -2.08637 -339.024 7.76345 1.39465
lowerback 22.953 -6.48982 -8.1265
upperback 9.05218 -9.96812 -2.01501
thorax -1.65628 -5.01573 4.61975
lowerneck -14.7539 -9.04785 -1.03683
upperneck 16.2015 -16.2073 18.7923
head 9.36616 -6.06209 4.38633
rclavicle 6.36111e-014 -1.90833e-014
rhumerus 17.4747 -40.7906 -15.6219
rradius 137.22
rwrist -51.306
rhand -18.4706 -13.3932
rfingers 7.12502
rthumb 7.81616 -43.2287
lclavicle 6.36111e-014 -1.90833e-014
lhumerus -59.0118 -44.9013 93.7614
lradius 69.9943
lwrist -3.68393
lhand -33.2296 -20.8912
lfingers 7.12502
lthumb -6.43584 8.99105
rfemur -76.4703 4.60063 5.19211
rtibia 61.9983
rfoot -1.84344 27.8853
rtoes 12.1107
lfemur -40.0831 48.649 -22.5428
ltibia 74.3519
lfoot -41.616 23.7882
ltoes -16.0461
499
root -5.6249 14.0476 -2.07809 -339.115 7.61987 1.39435
lowerback 23.1767 -6.3969 -8.33251
upperback 9.06969 -9.90847 -2.01639
thorax -1.71676 -4.98752 4.74356
lowerneck -14.764 -9.07839 -1.01438
upperneck 16.1807 -16.2449 18.7632
head 9.36006 -6.08234 4.36597
rclavicle 2.8625e-014 8.26944e-014
rhumerus 17.4478 -40.9747 -15.4637
rradius 137.037
rwrist -52.8332
rhand -18.9681 -13.6618
rfingers 7.12502
rthumb 7.33599 -43.5146
lclavicle 2.8625e-014 8.26944e-014
lhumerus -58.8106 -44.8591 93.7194
lradius 69.6059
lwrist -3.82818
lhand -33.55 -20.5036
lfingers 7.12502
lthumb -6.74513 9.36899
rfemur -76.5267 4.70019 5.30081
rtibia 62.1713
rfoot -1.86368 27.9599
rtoes 12.016
lfemur -39.8132 48.9041 -22.2888
ltibia 74.3472
lfoot -41.4565 23.6865
ltoes -16.1711
